<?xml version="1.0" standalone="no"?>
<!DOCTYPE svg PUBLIC "-//W3C//DTD SVG 20010904//EN"
 "http://www.w3.org/TR/2001/REC-SVG-20010904/DTD/svg10.dtd">
<svg version="1.0" xmlns="http://www.w3.org/2000/svg"
 width="700.000000pt" height="700.000000pt" viewBox="0 0 700.000000 700.000000"
 preserveAspectRatio="xMidYMid meet">
<metadata>
Created by potrace 1.14, written by Peter Selinger 2001-2017
</metadata>
<g transform="translate(0.000000,700.000000) scale(0.100000,-0.100000)"
fill="#000000" stroke="none">
<path d="M3280 6994 c-19 -2 -84 -9 -145 -14 -578 -56 -1180 -283 -1660 -625
-237 -169 -531 -446 -709 -670 -416 -521 -673 -1147 -748 -1820 -17 -155 -17
-575 0 -730 52 -469 198 -931 418 -1327 290 -523 731 -983 1239 -1294 439
-269 920 -432 1460 -496 145 -17 576 -17 730 0 822 91 1556 447 2131 1034 203
206 348 390 487 618 274 449 433 916 499 1465 16 136 16 592 0 730 -86 725
-352 1347 -803 1885 -122 145 -351 370 -494 484 -510 407 -1117 661 -1775 742
-117 15 -553 27 -630 18z m603 -898 c591 -97 1075 -343 1479 -752 132 -134
200 -215 292 -348 235 -338 383 -718 448 -1151 18 -121 18 -569 0 -690 -75
-499 -266 -940 -567 -1311 -83 -103 -277 -296 -381 -380 -372 -299 -784 -481
-1271 -560 -130 -21 -497 -30 -633 -15 -636 68 -1175 325 -1612 768 -131 133
-200 214 -292 347 -229 329 -374 695 -442 1113 -21 134 -30 489 -15 639 51
507 251 996 568 1389 90 111 281 304 387 390 372 302 851 508 1311 564 50 6
101 13 115 15 63 11 520 -3 613 -18z"/>
<path d="M3240 5585 c-800 -100 -1484 -661 -1734 -1425 -328 -1002 126 -2081
1071 -2546 803 -395 1768 -235 2406 400 635 631 799 1610 402 2411 -323 653
-940 1084 -1670 1165 -121 13 -346 11 -475 -5z m575 -543 c556 -121 998 -513
1175 -1040 63 -188 74 -265 74 -502 0 -237 -11 -314 -74 -502 -179 -534 -633
-931 -1197 -1045 -135 -28 -473 -25 -606 5 -633 141 -1088 596 -1229 1229 -19
84 -22 129 -22 313 0 184 3 229 22 313 147 661 644 1134 1307 1243 118 20 433
12 550 -14z"/>
<path d="M3309 4534 c-424 -76 -770 -425 -844 -851 -112 -643 383 -1233 1035
-1233 581 0 1050 469 1050 1050 0 510 -367 947 -869 1035 -102 18 -270 18
-372 -1z m324 -530 c88 -23 148 -56 219 -123 113 -105 168 -231 168 -381 0
-150 -55 -276 -168 -381 -102 -96 -212 -139 -354 -139 -286 0 -518 232 -518
520 0 230 155 439 374 501 77 22 200 24 279 3z"/>
</g>
</svg>
